<svg width="25" height="25" viewBox="0 0 25 25" fill="none" xmlns="http://www.w3.org/2000/svg">
<g id="Frame">
<path id="Vector" d="M17.7959 13.2959L10.2959 20.7959C10.0846 21.0072 9.79791 21.126 9.49902 21.126C9.20014 21.126 8.91349 21.0072 8.70215 20.7959C8.4908 20.5846 8.37207 20.2979 8.37207 19.999C8.37207 19.7001 8.4908 19.4135 8.70215 19.2021L15.4062 12.5L8.70402 5.7959C8.59937 5.69125 8.51636 5.56702 8.45973 5.43029C8.40309 5.29356 8.37394 5.14702 8.37394 4.99902C8.37394 4.85103 8.40309 4.70448 8.45973 4.56776C8.51636 4.43103 8.59937 4.30679 8.70402 4.20215C8.80867 4.0975 8.9329 4.01449 9.06963 3.95785C9.20636 3.90122 9.3529 3.87207 9.5009 3.87207C9.64889 3.87207 9.79543 3.90122 9.93216 3.95785C10.0689 4.01449 10.1931 4.0975 10.2978 4.20215L17.7978 11.7021C17.9025 11.8068 17.9856 11.9311 18.0422 12.0679C18.0988 12.2047 18.1279 12.3513 18.1277 12.4994C18.1275 12.6475 18.0981 12.7941 18.0412 12.9307C17.9843 13.0674 17.9009 13.1915 17.7959 13.2959Z" fill="white"/>
</g>
</svg>
