<svg width="20" height="20" viewBox="0 0 20 20" fill="none" xmlns="http://www.w3.org/2000/svg">
<g id="Frame">
<path id="Vector" d="M10.6537 14.6508C10.7411 14.7379 10.8105 14.8413 10.8578 14.9553C10.9051 15.0693 10.9295 15.1914 10.9295 15.3148C10.9295 15.4382 10.9051 15.5604 10.8578 15.6743C10.8105 15.7883 10.7411 15.8918 10.6537 15.9789L10.1897 16.4429C9.31033 17.3223 8.11766 17.8163 6.87406 17.8163C5.63046 17.8163 4.43779 17.3223 3.55844 16.4429C2.67908 15.5636 2.18506 14.3709 2.18506 13.1273C2.18506 11.8837 2.67908 10.691 3.55844 9.81169L5.44281 7.9281C6.28772 7.0811 7.42451 6.58921 8.62033 6.55319C9.81615 6.51717 10.9805 6.93974 11.8748 7.73435C11.9672 7.81642 12.0424 7.91588 12.0963 8.02705C12.1502 8.13821 12.1817 8.2589 12.189 8.38223C12.1962 8.50556 12.1791 8.62911 12.1386 8.74582C12.0981 8.86254 12.035 8.97014 11.953 9.06247C11.8709 9.15481 11.7714 9.23007 11.6603 9.28397C11.5491 9.33787 11.4284 9.36934 11.3051 9.3766C11.1818 9.38385 11.0582 9.36675 10.9415 9.32625C10.8248 9.28576 10.7172 9.22267 10.6248 9.1406C10.0885 8.66429 9.39049 8.4109 8.67352 8.43224C7.95656 8.45359 7.27483 8.74807 6.76781 9.25544L4.885 11.1367C4.35747 11.6642 4.0611 12.3797 4.0611 13.1258C4.0611 13.8718 4.35747 14.5873 4.885 15.1148C5.41253 15.6423 6.12802 15.9387 6.87406 15.9387C7.6201 15.9387 8.33559 15.6423 8.86312 15.1148L9.32719 14.6508C9.41425 14.5636 9.51765 14.4944 9.63146 14.4473C9.74527 14.4001 9.86726 14.3758 9.99047 14.3758C10.1137 14.3758 10.2357 14.4001 10.3495 14.4473C10.4633 14.4944 10.5667 14.5636 10.6537 14.6508ZM16.4412 3.557C15.5612 2.679 14.3688 2.18591 13.1256 2.18591C11.8825 2.18591 10.6901 2.679 9.81 3.557L9.34594 4.02107C9.16982 4.19719 9.07087 4.43606 9.07087 4.68513C9.07087 4.9342 9.16982 5.17307 9.34594 5.34919C9.52206 5.52531 9.76093 5.62426 10.01 5.62426C10.2591 5.62426 10.4979 5.52531 10.6741 5.34919L11.1381 4.88513C11.6657 4.3576 12.3811 4.06123 13.1272 4.06123C13.8732 4.06123 14.5887 4.3576 15.1162 4.88513C15.6438 5.41266 15.9401 6.12815 15.9401 6.87419C15.9401 7.62023 15.6438 8.33572 15.1162 8.86325L13.2327 10.7476C12.7252 11.2548 12.0431 11.5488 11.3259 11.5696C10.6088 11.5904 9.91081 11.3363 9.37484 10.8593C9.28251 10.7773 9.17491 10.7142 9.05819 10.6737C8.94148 10.6332 8.81793 10.6161 8.6946 10.6233C8.57127 10.6306 8.45058 10.6621 8.33942 10.716C8.22825 10.7699 8.12879 10.8451 8.04672 10.9375C7.96464 11.0298 7.90156 11.1374 7.86106 11.2541C7.82057 11.3708 7.80346 11.4944 7.81072 11.6177C7.81797 11.741 7.84944 11.8617 7.90334 11.9729C7.95724 12.0841 8.03251 12.1835 8.12484 12.2656C9.01858 13.06 10.1821 13.4829 11.3774 13.4476C12.5726 13.4123 13.7092 12.9215 14.5545 12.0758L16.4389 10.1922C17.3179 9.3123 17.8119 8.11957 17.8123 6.87585C17.8128 5.63212 17.3197 4.43905 16.4412 3.55857V3.557Z" fill="white"/>
</g>
</svg>
