<svg width="20" height="20" viewBox="0 0 20 20" fill="none" xmlns="http://www.w3.org/2000/svg">
<g id="Frame">
<path id="Vector" d="M17.5 3.75V13.125C17.4995 13.214 17.48 13.3018 17.4428 13.3827C17.4056 13.4635 17.3516 13.5355 17.2844 13.5938C16.0906 14.6273 14.9492 15 13.8609 15C12.3836 15 11.0039 14.3172 9.72031 13.6836C7.64609 12.6563 5.84297 11.7664 3.75 13.4195V16.875C3.75 17.0408 3.68415 17.1997 3.56694 17.3169C3.44973 17.4342 3.29076 17.5 3.125 17.5C2.95924 17.5 2.80027 17.4342 2.68306 17.3169C2.56585 17.1997 2.5 17.0408 2.5 16.875V3.75C2.5006 3.66096 2.52022 3.57308 2.55754 3.49224C2.59486 3.41139 2.64903 3.33946 2.71641 3.28125C5.52891 0.845314 8.05312 2.09297 10.2781 3.19375C12.4219 4.25469 14.2805 5.17188 16.4656 3.28125C16.5559 3.20296 16.6668 3.15221 16.7851 3.13501C16.9034 3.11782 17.0241 3.1349 17.133 3.18424C17.2419 3.23357 17.3343 3.3131 17.3993 3.41337C17.4644 3.51365 17.4993 3.63048 17.5 3.75Z" fill="white"/>
</g>
</svg>
